<svg version="1.1" xmlns="http://www.w3.org/2000/svg" xmlns:xlink="http://www.w3.org/1999/xlink" width="793" height="702"><defs><clipPath id="pMiJynJhCrcW"><path fill="none" stroke="none" d=" M 0 0 L 793 0 L 793 702 L 0 702 L 0 0 Z"/></clipPath></defs><g transform="scale(1,1)" clip-path="url(#pMiJynJhCrcW)"><g><rect fill="rgb(255,255,255)" stroke="none" x="0" y="0" width="794" height="703" fill-opacity="1"/><path fill="none" stroke="rgb(37,37,37)" paint-order="fill stroke markers" d=" M 98.5 2.5 L 98.5 702.5" stroke-opacity="1" stroke-miterlimit="10"/><path fill="none" stroke="rgb(37,37,37)" paint-order="fill stroke markers" d=" M 98.5 1.5 L 94.5 5.5" stroke-opacity="1" stroke-miterlimit="10"/><path fill="none" stroke="rgb(37,37,37)" paint-order="fill stroke markers" d=" M 98.5 1.5 L 102.5 5.5" stroke-opacity="1" stroke-miterlimit="10"/><path fill="none" stroke="rgb(37,37,37)" paint-order="fill stroke markers" d=" M 0.5 628.5 L 791.5 628.5" stroke-opacity="1" stroke-miterlimit="10"/><path fill="none" stroke="rgb(37,37,37)" paint-order="fill stroke markers" d=" M 792.5 628.5 L 788.5 624.5" stroke-opacity="1" stroke-miterlimit="10"/><path fill="none" stroke="rgb(37,37,37)" paint-order="fill stroke markers" d=" M 792.5 628.5 L 788.5 632.5" stroke-opacity="1" stroke-miterlimit="10"/><path fill="none" stroke="rgb(0,0,0)" paint-order="fill stroke markers" d=" M 722.6238978557999 123.91358872303147 C 722.6238978557999 409.09582376241804 491.4380182102169 640.2817034080007 206.25578317083 640.2817034080007 C -78.926451868557 640.2817034080007 -310.1123315141399 409.09582376241804 -310.1123315141399 123.91358872303147 C -310.1123315141399 -161.26864631635516 -78.926451868557 -392.45452596193775 206.25578317083 -392.45452596193775 C 491.4380182102169 -392.45452596193775 722.6238978557999 -161.26864631635516 722.6238978557999 123.91358872303147 Z" stroke-opacity="0.6980392156862745" stroke-linecap="round" stroke-linejoin="round" stroke-miterlimit="10"/><path fill="rgb(0,0,0)" stroke="none" paint-order="stroke fill markers" d=" M 555.9690682934902 520.895096010164 C 553.1076468752809 514.4831217788999 548.9278236923338 508.74570686920225 543.7017554076879 504.05642586256613 L 510.309346071268 541.2713019030555 Z" fill-opacity="0.09803921568627451"/><path fill="none" stroke="rgb(0,0,0)" paint-order="fill stroke markers" d=" M 555.9690682934902 520.895096010164 C 553.1076468752809 514.4831217788999 548.9278236923338 508.74570686920225 543.7017554076879 504.05642586256613 L 510.309346071268 541.2713019030555 Z" stroke-opacity="0.6980392156862745" stroke-linecap="round" stroke-linejoin="round" stroke-miterlimit="10"/><path fill="rgb(0,0,0)" stroke="none" paint-order="stroke fill markers" d=" M 195.83911650416331 172.81648286597095 C 199.2633523405649 173.54586962151944 202.75472674419723 173.9135887230314 206.25578317082994 173.9135887230314 L 206.25578317082997 123.91358872303147 Z" fill-opacity="0.09803921568627451"/><path fill="none" stroke="rgb(0,0,0)" paint-order="fill stroke markers" d=" M 195.83911650416331 172.81648286597095 C 199.2633523405649 173.54586962151944 202.75472674419723 173.9135887230314 206.25578317082994 173.9135887230314 L 206.25578317082997 123.91358872303147 Z" stroke-opacity="0.6980392156862745" stroke-linecap="round" stroke-linejoin="round" stroke-miterlimit="10"/><path fill="rgb(0,0,0)" stroke="none" paint-order="stroke fill markers" d=" M 363.8324737301989 628.9514937475983 C 363.8324737301989 621.9300162624118 362.3536173706304 614.987262085971 359.4921959524211 608.5752878547069 L 313.8324737301989 628.9514937475983 Z" fill-opacity="0.09803921568627451"/><path fill="none" stroke="rgb(0,0,0)" paint-order="fill stroke markers" d=" M 363.8324737301989 628.9514937475983 C 363.8324737301989 621.9300162624118 362.3536173706304 614.987262085971 359.4921959524211 608.5752878547069 L 313.8324737301989 628.9514937475983 Z" stroke-opacity="0.6980392156862745" stroke-linecap="round" stroke-linejoin="round" stroke-miterlimit="10"/><path fill="none" stroke="rgb(0,0,0)" paint-order="fill stroke markers" d=" M 206.25578317082997 708 L 206.25578317082997 -5" stroke-opacity="0.6980392156862745" stroke-linejoin="round" stroke-miterlimit="10" stroke-width="1.5" stroke-dasharray="9.5,4,1.5,4"/><path fill="rgb(255,0,0)" stroke="none" paint-order="stroke fill markers" d=" M 314.71875884530465 628.0700184438257 C 314.9512212921751 628.3037475458891 315.0819615567241 628.6198673212132 315.08247222853316 628.949554792937 L 315.08247225846213 628.949554792937 C 315.0819512465537 628.6063684401277 314.9431301279824 628.2956063324144 314.7187588767765 628.0700184438257 Z M 315.0824721490974 628.9534833247947 L 315.0824721490973 628.9534833247947 C 315.08194637141025 629.2842861897317 314.9503086933387 629.6014257374247 314.7163572066819 629.8353772240815 C 314.94212802542614 629.6096064053373 315.08193568994324 629.2978724323659 315.08247218060563 628.9534833247947 Z M 98.67909261146123 627.7014937475983 C 97.98873667417274 627.7014937475983 97.42909261146123 628.2611378103098 97.42909261146123 628.9514937475983 C 97.42909261146123 629.6418496848868 97.98873667417274 630.2014937475983 98.67909261146123 630.2014937475983 L 307.5824737301987 630.2014937475983 L 307.5824737301987 627.7014937475983 Z" fill-opacity="1"/><path fill="rgb(255,0,0)" stroke="none" paint-order="stroke fill markers" d=" M 308.8321982888841 622.7014572101293 C 308.67117069833705 622.7014572101293 308.50877755235393 622.7325828441845 308.35411943974236 622.7966443319592 C 307.8870264526757 622.9901205820915 307.5824737301987 623.4459159415861 307.5824737301987 623.9514937475983 L 307.5824737301987 633.9514937475983 C 307.5824737301987 634.4570715536105 307.8870264526757 634.9128669131051 308.35411943974236 635.1063431632374 C 308.50877755235393 635.1704046510122 308.67117069833705 635.2015302850674 308.8321982888841 635.2015302850674 C 309.15750055843097 635.2015302850674 309.47722990638783 635.0745045243756 309.7163572066819 634.8353772240815 L 314.7163572066819 629.8353772240815 C 314.950777679742 629.6009567510215 315.0824737301987 629.2830143598977 315.0824737301987 628.9514937475983 C 315.0824737301987 628.6199731352989 314.950777679742 628.3020307441751 314.7163572066819 628.0676102711151 L 309.7163572066819 623.0676102711151 C 309.47722990638783 622.828482970821 309.15750055843097 622.7014572101293 308.8321982888841 622.7014572101293 Z" fill-opacity="1"/><path fill="none" stroke="rgb(0,0,0)" paint-order="fill stroke markers" d=" M 313.8324737301987 628.9514937475983 L 206.25578317082997 123.91358872303147" stroke-opacity="0.6980392156862745" stroke-linecap="round" stroke-linejoin="round" stroke-miterlimit="10" stroke-width="2.5"/><path fill="none" stroke="rgb(0,0,0)" paint-order="fill stroke markers" d=" M 206.25578317082997 123.91358872303147 L 98.67909261146123 628.9514937475983" stroke-opacity="0.6980392156862745" stroke-linecap="round" stroke-linejoin="round" stroke-miterlimit="10" stroke-width="2.5"/><path fill="rgb(255,0,0)" stroke="none" paint-order="stroke fill markers" d=" M 654.4145021670024 379.95385478180367 C 654.5701653215827 380.0087493252812 654.7122100645457 380.093731188162 654.8332394856021 380.2021632220129 L 654.8332394939123 380.2021632220129 C 654.7072724983906 380.08930491387576 654.5647230373456 380.00669624094127 654.4145022324439 379.95385478180367 Z M 654.835958440743 380.2046063047843 L 654.8359584407428 380.2046063047843 C 654.9562631666174 380.31302094229693 655.0556396921943 380.44467763478326 655.1267660618355 380.5930064896138 L 655.1267660057359 380.5930064896138 C 655.0582498104551 380.44982997213884 654.9611547295556 380.3174216747733 654.8359585062265 380.2046063047843 Z M 648.8947184518355 384.95022301418686 L 509.3789741702558 540.436491669645 C 508.9179212093405 540.9503218822451 508.9607056252574 541.7406208431524 509.4745358378575 542.2016738040677 C 509.71324318063296 542.4158627024236 510.01161809043793 542.5213132690941 510.3089301069051 542.5213132690941 C 510.6515979706279 542.5213132690941 510.9928539097209 542.3812350062907 511.23971797228023 542.106112136466 L 650.7554622538601 386.6198434810078 L 650.75546225386 386.6198434810078 L 648.8947184518355 384.95022301418686 Z" fill-opacity="1"/><path fill="rgb(255,0,0)" stroke="none" paint-order="stroke fill markers" d=" M 654.0002328816298 379.8831408689601 C 653.9774678503085 379.8831408689601 653.9545743684029 379.88375605532855 653.9315692167175 379.8850014852565 L 646.8708406790266 380.2672481556634 C 646.366002125938 380.2945786010957 645.9273366908825 380.62332532213213 645.7593933797455 381.1001942372195 C 645.5914500686084 381.57706315230683 645.7273024412074 382.10814309295995 646.1036027487988 382.44579231395534 L 653.5465779568966 389.1242741812393 C 653.7808238194078 389.33445985316854 654.0795276651321 389.44392390917903 654.381652983043 389.44392390917903 C 654.564871776837 389.44392390917903 654.7493488550315 389.40366728671523 654.921471701781 389.32120428086137 C 655.3774227995362 389.1027608914259 655.6568908930191 388.631168530133 655.6295604475869 388.12632997704435 L 655.2473137771799 381.0656014393535 C 655.2112400545491 380.39926008818134 654.6596191763884 379.8831408689601 654.0002328816298 379.8831408689601 Z" fill-opacity="1"/><path fill="none" stroke="rgb(0,0,0)" paint-order="fill stroke markers" d=" M 206.25578317082997 123.91358872303147 L 510.309346071268 541.2713019030555" stroke-opacity="0.6980392156862745" stroke-linecap="round" stroke-linejoin="round" stroke-miterlimit="10" stroke-width="2.5"/><path fill="none" stroke="rgb(0,0,0)" paint-order="fill stroke markers" d=" M 653.9991415199003 381.13317374253614 L 206.25578317082997 123.91358872303147" stroke-opacity="0.6980392156862745" stroke-linecap="round" stroke-linejoin="round" stroke-miterlimit="10" stroke-width="2.5"/><path fill="none" stroke="rgb(0,0,0)" paint-order="fill stroke markers" d=" M 719.9557150329299 176.3388676272417 L 206.25578317082997 123.91358872303147" stroke-opacity="0.6980392156862745" stroke-linecap="round" stroke-linejoin="round" stroke-miterlimit="10" stroke-width="2.5"/><path fill="rgb(255,0,0)" stroke="none" paint-order="stroke fill markers" d=" M 719.9554352584837 175.08853081754754 C 719.9215775480557 175.08853081754754 719.8878733585445 175.0899174127281 719.854397202854 175.09265239378558 L 719.85439725571 175.09265239378558 C 719.8878641976748 175.08994487128228 719.921323917662 175.0886039322458 719.9546967900475 175.0886039322458 C 720.0857122915278 175.0886039322458 720.2153893002634 175.10927044618623 720.3389101120057 175.14905187202078 L 720.338910112006 175.14905187202078 C 720.211546129885 175.1080327049891 720.0824110900994 175.08853081754754 719.9554352584837 175.08853081754754 Z M 720.3407343409723 175.14964092245677 L 720.3407343409722 175.14964092245677 C 720.4950293160267 175.19959321802193 720.6396719340576 175.27938897694776 720.7652581229597 175.38599949992675 L 720.7652581510973 175.38599949992675 C 720.6441688340919 175.28304111302822 720.5013112299982 175.2016228541247 720.3407344130064 175.14964092245677 Z M 716.8499238823284 181.90475132427005 L 652.8093257646793 380.74997866346 C 652.5976929662954 381.40709576017696 652.9588293441072 382.1113566993731 653.6159464408241 382.3229894977571 C 653.7433104229451 382.36400866478874 653.8724454627308 382.38351055223035 653.9994212943465 382.38351055223035 C 654.527559949849 382.3835105522303 655.018343643769 382.0461219362082 655.1889572751212 381.5163688216123 L 719.2295553927703 182.67114148242237 L 716.8499238823283 181.90475132427005 Z" fill-opacity="1"/><path fill="rgb(255,0,0)" stroke="none" paint-order="stroke fill markers" d=" M 719.9546967900475 175.0886039322458 C 719.7627361647874 175.0886039322458 719.567902146946 175.13296951291264 719.3853480829827 175.22658099943044 L 713.0933047457947 178.45306370400942 C 712.6434267994382 178.68375560095058 712.3768121786647 179.16273202468608 712.4177828639076 179.6666470183933 C 712.4587535491505 180.1705620121005 712.7992410653991 180.60017814515857 713.2804766166657 180.75516608704174 L 722.7990026584329 183.82072671965068 C 722.9249987996121 183.86130535636028 723.0541465987081 183.88096633575134 723.1820339260652 183.88096633575134 C 723.5426054348652 183.88096633575134 723.8931571009485 183.72467570655996 724.1348017530909 183.4402598320371 C 724.4621528129176 183.05496747348002 724.5251762622613 182.51042196083904 724.2944843653204 182.0605440144824 L 721.0680016607413 175.76850067729447 C 720.8466081789957 175.336755799277 720.4086884182684 175.0886039322458 719.9546967900475 175.0886039322458 Z" fill-opacity="1"/><path fill="none" stroke="rgb(0,0,0)" paint-order="fill stroke markers" d=" M 313.8324737301987 628.9514937475983 L 794 414.6709002140693" stroke-opacity="0.6980392156862745" stroke-linejoin="round" stroke-miterlimit="10" stroke-dasharray="9,8"/><path fill="rgb(0,0,255)" stroke="none" paint-order="stroke fill markers" d=" M 720.6076702795 175.27196931204705 L 720.6076702794999 175.27196931204705 C 720.7483127448057 175.3579890798154 720.8694136691048 175.47053539841357 720.9651420021761 175.60160430379517 L 720.9651420193776 175.60160430379517 C 720.8655156095732 175.4651930100415 720.7434297596556 175.35485471211413 720.6076703515607 175.27196931204705 Z M 720.9678673632695 175.6053502649209 C 721.0627981617237 175.73633732339786 721.1324683945616 175.88564930773225 721.171104532706 176.04536121000885 L 721.171104575749 176.04536121000885 C 721.1339452951592 175.89121970778612 721.0666551870108 175.74164853864647 720.9678674353663 175.6053502649209 Z M 714.1680752155023 179.00874128412664 L 97.94305383831306 627.9411735387424 L 97.94305383831308 627.9411735387424 C 97.38506939451611 628.3476765284363 97.26226941291145 629.1295480769495 97.66877240260534 629.6875325207465 C 97.91345142638733 630.0233900481329 98.29412574504768 630.2015810958108 98.68011475480309 630.2015810958108 C 98.93539725263045 630.2015810958108 99.19300446819884 630.1236379223661 99.41513138460938 629.9618139564542 L 99.41513138460937 629.9618139564542 L 715.6401527617986 181.02938170183836 L 714.1680752155023 179.00874128412664 Z" fill-opacity="0.6980392156862745"/><path fill="rgb(0,0,255)" stroke="none" paint-order="stroke fill markers" d=" M 712.969983357428 173.99169613742373 C 712.5393270324658 173.99169613742373 712.1329613583821 174.214682557756 711.9036351419547 174.58999756622848 C 711.6400291719806 175.02141477789974 711.6622590016033 175.56914427790844 711.9599588960579 175.97778065755898 L 717.8482690812431 184.06034232840597 C 718.0868932142336 184.38788863802478 718.4648385156404 184.574363685914 718.8585407652364 184.574363685914 C 718.9560089462351 184.574363685914 719.0544428712736 184.56293462211804 719.1519676424325 184.53938756156435 C 719.6434232472559 184.42072709460086 720.015007627697 184.01770498761812 720.0934515686602 183.5182498184003 L 721.190577311491 176.5328138903842 C 721.2976908749112 175.8508182857936 720.8316569006629 175.21111891210091 720.1496612960724 175.10400534868063 L 713.1642253680563 174.00687960584975 C 713.0992753970443 173.99667862685175 713.0343579976808 173.99169613742373 712.969983357428 173.99169613742373 Z" fill-opacity="0.6980392156862745"/><path fill="rgb(255,0,0)" stroke="none" paint-order="stroke fill markers" d=" M 510.7591817900645 540.105048140081 L 510.7591817900644 540.105048140081 C 511.06716953165164 540.2238408552207 511.31569777013226 540.4596590423146 511.4504666888274 540.7610630007929 L 511.4504666961174 540.7610630007929 C 511.3101739849351 540.4472930947846 511.0564306678004 540.2196947279608 510.7591818411404 540.105048140081 Z M 511.4518250911508 540.764111901654 C 511.58532677206006 541.0648310371878 511.5948665999473 541.4060342731169 511.47844232292204 541.7136976397353 L 511.47844237210575 541.7136976397353 C 511.5908281934155 541.4167232990364 511.59079342857865 541.0771124043482 511.45182514229595 540.764111901654 Z M 504.0924756461677 542.6768345841115 L 313.32306858287666 627.8100006920428 L 313.3230685828766 627.8100006920428 C 312.6926393762555 628.0913373863942 312.40964398029195 628.8304696882994 312.69098067464336 629.4608988949205 C 312.89846427049673 629.9258354685953 313.354940439277 630.2018046581144 313.83317635110296 630.2018046581144 C 314.0034028394001 630.2018046581144 314.17638624457487 630.1668399016519 314.3418788775212 630.0929868031538 L 314.34187887752125 630.0929868031538 L 505.11128594081254 544.9598206952224 L 505.1112859408125 544.9598206952224 L 504.092475646168 542.6768345841115 Z" fill-opacity="1"/><path fill="rgb(255,0,0)" stroke="none" paint-order="stroke fill markers" d=" M 503.7060083800211 537.4929065196048 C 503.3690227453485 537.4929065196048 503.03891405669924 537.6292900345358 502.7982937898688 537.8832891098326 C 502.4505933072021 538.2503222040973 502.35822505479746 538.79066457376 502.5642602042011 539.2523554174447 L 506.6395013827794 548.3842998618892 C 506.8409079745564 548.8356188700794 507.288688820774 549.1248975732597 507.7807974791635 549.1248975732597 C 507.79210670823994 549.1248975732597 507.8034393483337 549.1247447953895 507.814792947181 549.1244376953401 C 508.3201859061709 549.1107674745809 508.7675798775633 548.794001938472 508.9483557526386 548.3218483607847 L 511.47670738557156 541.7182555492733 C 511.59524686274256 541.4086520791192 511.5859417719025 541.0646395371039 511.45083912682355 540.7618967557332 C 511.31573648174447 540.4591539743625 511.06590318763983 540.2224800659226 510.7562997174857 540.1039405887518 L 504.15270690597436 537.5755889558187 C 504.00729926483785 537.5199159824235 503.85597286543106 537.4929065196048 503.7060083800211 537.4929065196048 Z" fill-opacity="1"/><g transform="scale(19,19)"><g transform="translate(6.2105263157894735,19.683)"><path fill="rgb(0,0,0)" stroke="none" paint-order="stroke fill markers" d=" M 0.375 -0.614 L 0.31 -0.353 L 0.422 -0.353 Q 0.533 -0.353 0.591 -0.41100000000000003 Q 0.635 -0.455 0.645 -0.533 L 0.645 -0.534 Q 0.646 -0.545 0.646 -0.553 Q 0.646 -0.642 0.52 -0.651 L 0.518 -0.651 Q 0.499 -0.652 0.464 -0.652 Q 0.41200000000000003 -0.652 0.403 -0.651 Q 0.385 -0.648 0.379 -0.629 L 0.379 -0.629 Q 0.378 -0.624 0.375 -0.614 M 0.519 -0.34 L 0.519 -0.34 Q 0.605 -0.308 0.612 -0.23500000000000001 Q 0.613 -0.229 0.613 -0.222 Q 0.613 -0.203 0.609 -0.17500000000000002 Q 0.599 -0.095 0.599 -0.061 Q 0.599 -0.009000000000000001 0.625 -0.002 L 0.626 -0.002 Q 0.632 0 0.639 0 Q 0.682 0 0.712 -0.052000000000000005 Q 0.723 -0.069 0.73 -0.091 Q 0.734 -0.105 0.743 -0.105 Q 0.755 -0.105 0.755 -0.093 Q 0.755 -0.073 0.731 -0.037 Q 0.712 -0.008 0.687 0.008 Q 0.663 0.022 0.635 0.022 Q 0.552 0.022 0.519 -0.027 Q 0.502 -0.051000000000000004 0.502 -0.08600000000000001 Q 0.502 -0.107 0.518 -0.171 Q 0.532 -0.225 0.532 -0.24 Q 0.532 -0.302 0.47600000000000003 -0.322 L 0.47600000000000003 -0.323 Q 0.453 -0.331 0.423 -0.331 L 0.304 -0.331 L 0.23800000000000002 -0.066 L 0.23500000000000001 -0.049 Q 0.23500000000000001 -0.032 0.281 -0.031 L 0.281 -0.031 L 0.281 -0.031 L 0.3 -0.031 Q 0.326 -0.031 0.328 -0.02 Q 0.328 0 0.308 0 L 0.182 -0.003 L 0.181 -0.003 L 0.056 0 L 0.055 0 Q 0.041 0 0.041 -0.011 Q 0.041 -0.029 0.056 -0.031 L 0.068 -0.031 Q 0.133 -0.031 0.146 -0.045 Q 0.152 -0.052000000000000005 0.158 -0.073 Q 0.158 -0.074 0.159 -0.078 L 0.293 -0.615 Q 0.297 -0.631 0.297 -0.634 Q 0.297 -0.646 0.281 -0.649 L 0.28 -0.649 L 0.279 -0.649 Q 0.276 -0.649 0.27 -0.65 Q 0.253 -0.652 0.232 -0.652 Q 0.20600000000000002 -0.652 0.20400000000000001 -0.663 Q 0.20400000000000001 -0.681 0.219 -0.683 L 0.233 -0.683 L 0.518 -0.683 Q 0.643 -0.683 0.704 -0.617 Q 0.739 -0.581 0.739 -0.533 Q 0.739 -0.446 0.632 -0.384 Q 0.58 -0.353 0.519 -0.34 Z"/></g></g><g transform="scale(19,19)"><g transform="translate(20.57894736842105,32.48347368421053)"><path fill="rgb(0,0,0)" stroke="none" paint-order="stroke fill markers" d=" M 0.437 -0.67 L 0.381 -0.443 Q 0.508 -0.434 0.555 -0.341 Q 0.5730000000000001 -0.304 0.5730000000000001 -0.262 Q 0.5730000000000001 -0.166 0.488 -0.084 Q 0.399 0.002 0.281 0.011 Q 0.274 0.012 0.267 0.012 L 0.229 0.161 Q 0.221 0.198 0.218 0.201 Q 0.214 0.20500000000000002 0.20800000000000002 0.20500000000000002 Q 0.196 0.20500000000000002 0.196 0.194 Q 0.196 0.192 0.218 0.106 L 0.24 0.016 Q 0.24 0.014 0.241 0.012 Q 0.126 0.005 0.075 -0.075 Q 0.049 -0.117 0.049 -0.169 Q 0.049 -0.267 0.136 -0.34900000000000003 Q 0.225 -0.434 0.343 -0.442 Q 0.34900000000000003 -0.443 0.355 -0.443 L 0.41300000000000003 -0.674 Q 0.422 -0.6930000000000001 0.428 -0.6940000000000001 Q 0.44 -0.6940000000000001 0.44 -0.684 L 0.437 -0.671 L 0.437 -0.67 M 0.246 -0.01 L 0.34900000000000003 -0.421 Q 0.233 -0.41100000000000003 0.164 -0.309 Q 0.114 -0.234 0.114 -0.148 Q 0.114 -0.05 0.198 -0.019 Q 0.221 -0.011 0.246 -0.01 M 0.375 -0.421 L 0.272 -0.01 Q 0.388 -0.019 0.458 -0.123 Q 0.508 -0.198 0.508 -0.28300000000000003 Q 0.508 -0.377 0.43 -0.40900000000000003 Q 0.405 -0.419 0.375 -0.421 Z"/></g></g><g transform="scale(19,19)"><g transform="translate(30.105263157894736,26.220315789473684)"><path fill="rgb(0,0,0)" stroke="none" paint-order="stroke fill markers" d=" M 0.437 -0.67 L 0.381 -0.443 Q 0.508 -0.434 0.555 -0.341 Q 0.5730000000000001 -0.304 0.5730000000000001 -0.262 Q 0.5730000000000001 -0.166 0.488 -0.084 Q 0.399 0.002 0.281 0.011 Q 0.274 0.012 0.267 0.012 L 0.229 0.161 Q 0.221 0.198 0.218 0.201 Q 0.214 0.20500000000000002 0.20800000000000002 0.20500000000000002 Q 0.196 0.20500000000000002 0.196 0.194 Q 0.196 0.192 0.218 0.106 L 0.24 0.016 Q 0.24 0.014 0.241 0.012 Q 0.126 0.005 0.075 -0.075 Q 0.049 -0.117 0.049 -0.169 Q 0.049 -0.267 0.136 -0.34900000000000003 Q 0.225 -0.434 0.343 -0.442 Q 0.34900000000000003 -0.443 0.355 -0.443 L 0.41300000000000003 -0.674 Q 0.422 -0.6930000000000001 0.428 -0.6940000000000001 Q 0.44 -0.6940000000000001 0.44 -0.684 L 0.437 -0.671 L 0.437 -0.67 M 0.246 -0.01 L 0.34900000000000003 -0.421 Q 0.233 -0.41100000000000003 0.164 -0.309 Q 0.114 -0.234 0.114 -0.148 Q 0.114 -0.05 0.198 -0.019 Q 0.221 -0.011 0.246 -0.01 M 0.375 -0.421 L 0.272 -0.01 Q 0.388 -0.019 0.458 -0.123 Q 0.508 -0.198 0.508 -0.28300000000000003 Q 0.508 -0.377 0.43 -0.40900000000000003 Q 0.405 -0.419 0.375 -0.421 Z"/></g></g><g transform="scale(19,19)"><g transform="translate(8.957658779572633,7.904526315789473)"><path fill="rgb(0,0,0)" stroke="none" paint-order="stroke fill markers" d=" M 0.437 -0.67 L 0.381 -0.443 Q 0.508 -0.434 0.555 -0.341 Q 0.5730000000000001 -0.304 0.5730000000000001 -0.262 Q 0.5730000000000001 -0.166 0.488 -0.084 Q 0.399 0.002 0.281 0.011 Q 0.274 0.012 0.267 0.012 L 0.229 0.161 Q 0.221 0.198 0.218 0.201 Q 0.214 0.20500000000000002 0.20800000000000002 0.20500000000000002 Q 0.196 0.20500000000000002 0.196 0.194 Q 0.196 0.192 0.218 0.106 L 0.24 0.016 Q 0.24 0.014 0.241 0.012 Q 0.126 0.005 0.075 -0.075 Q 0.049 -0.117 0.049 -0.169 Q 0.049 -0.267 0.136 -0.34900000000000003 Q 0.225 -0.434 0.343 -0.442 Q 0.34900000000000003 -0.443 0.355 -0.443 L 0.41300000000000003 -0.674 Q 0.422 -0.6930000000000001 0.428 -0.6940000000000001 Q 0.44 -0.6940000000000001 0.44 -0.684 L 0.437 -0.671 L 0.437 -0.67 M 0.246 -0.01 L 0.34900000000000003 -0.421 Q 0.233 -0.41100000000000003 0.164 -0.309 Q 0.114 -0.234 0.114 -0.148 Q 0.114 -0.05 0.198 -0.019 Q 0.221 -0.011 0.246 -0.01 M 0.375 -0.421 L 0.272 -0.01 Q 0.388 -0.019 0.458 -0.123 Q 0.508 -0.198 0.508 -0.28300000000000003 Q 0.508 -0.377 0.43 -0.40900000000000003 Q 0.405 -0.419 0.375 -0.421 Z"/></g><rect fill="rgb(0,0,0)" stroke="none" x="8.957658779572633" y="8.311034815789474" width="0.596" height="0.039999"/><g transform="translate(9.005658779572633,9.266985315789475)"><path fill="rgb(0,0,0)" stroke="none" paint-order="stroke fill markers" d=" M 0.449 -0.17400000000000002 L 0.449 -0.17400000000000002 L 0.421 0 L 0.05 0 Q 0.05 -0.025 0.056 -0.032 L 0.061 -0.037 L 0.253 -0.251 Q 0.358 -0.369 0.358 -0.47200000000000003 Q 0.358 -0.561 0.304 -0.607 L 0.303 -0.608 L 0.302 -0.608 Q 0.27 -0.635 0.224 -0.635 Q 0.152 -0.635 0.109 -0.5730000000000001 Q 0.097 -0.555 0.089 -0.533 Q 0.092 -0.534 0.10200000000000001 -0.534 Q 0.14200000000000002 -0.534 0.153 -0.498 L 0.153 -0.497 Q 0.155 -0.49 0.155 -0.482 Q 0.155 -0.442 0.117 -0.431 Q 0.109 -0.429 0.10300000000000001 -0.429 Q 0.066 -0.429 0.054 -0.46 Q 0.05 -0.47100000000000003 0.05 -0.485 Q 0.05 -0.562 0.109 -0.617 Q 0.162 -0.666 0.23700000000000002 -0.666 Q 0.34700000000000003 -0.666 0.40800000000000003 -0.592 Q 0.443 -0.549 0.448 -0.49 Q 0.449 -0.481 0.449 -0.47200000000000003 Q 0.449 -0.399 0.394 -0.333 Q 0.365 -0.299 0.304 -0.243 L 0.243 -0.189 L 0.233 -0.18 L 0.127 -0.077 L 0.307 -0.077 Q 0.395 -0.077 0.402 -0.085 Q 0.41200000000000003 -0.099 0.424 -0.17400000000000002 L 0.449 -0.17400000000000002 Z"/></g></g><g transform="scale(19,19)"><g transform="translate(18.526315789473685,24.73563157894737)"><path fill="rgb(0,0,0)" stroke="none" paint-order="stroke fill markers" d=" M 0.708 -0.233 L 0.708 -0.233 L 0.616 -0.017 Q 0.61 -0.003 0.602 -0.001 L 0.602 -0.001 L 0.601 -0.001 Q 0.597 0 0.585 0 L 0.066 0 Q 0.041 0 0.039 -0.008 Q 0.038 -0.009000000000000001 0.038 -0.012 Q 0.038 -0.029 0.054 -0.031 L 0.066 -0.031 Q 0.131 -0.031 0.14400000000000002 -0.045 Q 0.15 -0.052000000000000005 0.156 -0.073 Q 0.156 -0.074 0.157 -0.078 L 0.289 -0.607 Q 0.294 -0.625 0.294 -0.631 Q 0.294 -0.648 0.248 -0.649 L 0.247 -0.649 L 0.229 -0.649 Q 0.203 -0.649 0.201 -0.66 Q 0.201 -0.678 0.217 -0.68 L 0.231 -0.68 L 0.736 -0.68 Q 0.76 -0.68 0.762 -0.673 L 0.763 -0.673 Q 0.765 -0.667 0.763 -0.653 L 0.743 -0.48 Q 0.736 -0.457 0.729 -0.455 Q 0.717 -0.455 0.717 -0.467 L 0.718 -0.484 L 0.718 -0.485 Q 0.722 -0.512 0.722 -0.538 Q 0.722 -0.608 0.683 -0.63 Q 0.65 -0.649 0.5700000000000001 -0.649 L 0.429 -0.649 Q 0.392 -0.649 0.385 -0.638 L 0.384 -0.638 L 0.384 -0.637 Q 0.381 -0.633 0.379 -0.625 L 0.379 -0.624 L 0.378 -0.623 Q 0.377 -0.619 0.375 -0.61 L 0.315 -0.369 L 0.40900000000000003 -0.369 Q 0.485 -0.369 0.51 -0.399 Q 0.526 -0.418 0.54 -0.468 Q 0.544 -0.485 0.554 -0.486 Q 0.5660000000000001 -0.486 0.5660000000000001 -0.47500000000000003 L 0.509 -0.241 Q 0.504 -0.222 0.494 -0.221 Q 0.481 -0.221 0.481 -0.232 Q 0.481 -0.23600000000000002 0.484 -0.243 Q 0.491 -0.273 0.491 -0.292 Q 0.491 -0.319 0.47600000000000003 -0.327 Q 0.457 -0.338 0.406 -0.338 L 0.307 -0.338 L 0.23900000000000002 -0.065 Q 0.234 -0.047 0.234 -0.042 Q 0.234 -0.034 0.243 -0.032 L 0.243 -0.032 L 0.243 -0.032 L 0.247 -0.032 Q 0.253 -0.031 0.269 -0.031 L 0.41500000000000004 -0.031 Q 0.537 -0.031 0.595 -0.08700000000000001 Q 0.633 -0.123 0.678 -0.222 Q 0.682 -0.233 0.6880000000000001 -0.246 Q 0.6920000000000001 -0.258 0.7010000000000001 -0.258 Q 0.713 -0.258 0.713 -0.247 Q 0.713 -0.246 0.708 -0.233 Z"/></g><g transform="translate(19.264315789473685,24.88563157894737) scale(0.7,0.7)"><path fill="rgb(0,0,0)" stroke="none" paint-order="stroke fill markers" d=" M 0.375 -0.614 L 0.31 -0.353 L 0.422 -0.353 Q 0.533 -0.353 0.591 -0.41100000000000003 Q 0.635 -0.455 0.645 -0.533 L 0.645 -0.534 Q 0.646 -0.545 0.646 -0.553 Q 0.646 -0.642 0.52 -0.651 L 0.518 -0.651 Q 0.499 -0.652 0.464 -0.652 Q 0.41200000000000003 -0.652 0.403 -0.651 Q 0.385 -0.648 0.379 -0.629 L 0.379 -0.629 Q 0.378 -0.624 0.375 -0.614 M 0.519 -0.34 L 0.519 -0.34 Q 0.605 -0.308 0.612 -0.23500000000000001 Q 0.613 -0.229 0.613 -0.222 Q 0.613 -0.203 0.609 -0.17500000000000002 Q 0.599 -0.095 0.599 -0.061 Q 0.599 -0.009000000000000001 0.625 -0.002 L 0.626 -0.002 Q 0.632 0 0.639 0 Q 0.682 0 0.712 -0.052000000000000005 Q 0.723 -0.069 0.73 -0.091 Q 0.734 -0.105 0.743 -0.105 Q 0.755 -0.105 0.755 -0.093 Q 0.755 -0.073 0.731 -0.037 Q 0.712 -0.008 0.687 0.008 Q 0.663 0.022 0.635 0.022 Q 0.552 0.022 0.519 -0.027 Q 0.502 -0.051000000000000004 0.502 -0.08600000000000001 Q 0.502 -0.107 0.518 -0.171 Q 0.532 -0.225 0.532 -0.24 Q 0.532 -0.302 0.47600000000000003 -0.322 L 0.47600000000000003 -0.323 Q 0.453 -0.331 0.423 -0.331 L 0.304 -0.331 L 0.23800000000000002 -0.066 L 0.23500000000000001 -0.049 Q 0.23500000000000001 -0.032 0.281 -0.031 L 0.281 -0.031 L 0.281 -0.031 L 0.3 -0.031 Q 0.326 -0.031 0.328 -0.02 Q 0.328 0 0.308 0 L 0.182 -0.003 L 0.181 -0.003 L 0.056 0 L 0.055 0 Q 0.041 0 0.041 -0.011 Q 0.041 -0.029 0.056 -0.031 L 0.068 -0.031 Q 0.133 -0.031 0.146 -0.045 Q 0.152 -0.052000000000000005 0.158 -0.073 Q 0.158 -0.074 0.159 -0.078 L 0.293 -0.615 Q 0.297 -0.631 0.297 -0.634 Q 0.297 -0.646 0.281 -0.649 L 0.28 -0.649 L 0.279 -0.649 Q 0.276 -0.649 0.27 -0.65 Q 0.253 -0.652 0.232 -0.652 Q 0.20600000000000002 -0.652 0.20400000000000001 -0.663 Q 0.20400000000000001 -0.681 0.219 -0.683 L 0.233 -0.683 L 0.518 -0.683 Q 0.643 -0.683 0.704 -0.617 Q 0.739 -0.581 0.739 -0.533 Q 0.739 -0.446 0.632 -0.384 Q 0.58 -0.353 0.519 -0.34 Z"/></g></g><g transform="scale(19,19)"><g transform="translate(12.157894736842104,31.946157894736842)"><path fill="rgb(0,0,0)" stroke="none" paint-order="stroke fill markers" d=" M 0.708 -0.233 L 0.708 -0.233 L 0.616 -0.017 Q 0.61 -0.003 0.602 -0.001 L 0.602 -0.001 L 0.601 -0.001 Q 0.597 0 0.585 0 L 0.066 0 Q 0.041 0 0.039 -0.008 Q 0.038 -0.009000000000000001 0.038 -0.012 Q 0.038 -0.029 0.054 -0.031 L 0.066 -0.031 Q 0.131 -0.031 0.14400000000000002 -0.045 Q 0.15 -0.052000000000000005 0.156 -0.073 Q 0.156 -0.074 0.157 -0.078 L 0.289 -0.607 Q 0.294 -0.625 0.294 -0.631 Q 0.294 -0.648 0.248 -0.649 L 0.247 -0.649 L 0.229 -0.649 Q 0.203 -0.649 0.201 -0.66 Q 0.201 -0.678 0.217 -0.68 L 0.231 -0.68 L 0.736 -0.68 Q 0.76 -0.68 0.762 -0.673 L 0.763 -0.673 Q 0.765 -0.667 0.763 -0.653 L 0.743 -0.48 Q 0.736 -0.457 0.729 -0.455 Q 0.717 -0.455 0.717 -0.467 L 0.718 -0.484 L 0.718 -0.485 Q 0.722 -0.512 0.722 -0.538 Q 0.722 -0.608 0.683 -0.63 Q 0.65 -0.649 0.5700000000000001 -0.649 L 0.429 -0.649 Q 0.392 -0.649 0.385 -0.638 L 0.384 -0.638 L 0.384 -0.637 Q 0.381 -0.633 0.379 -0.625 L 0.379 -0.624 L 0.378 -0.623 Q 0.377 -0.619 0.375 -0.61 L 0.315 -0.369 L 0.40900000000000003 -0.369 Q 0.485 -0.369 0.51 -0.399 Q 0.526 -0.418 0.54 -0.468 Q 0.544 -0.485 0.554 -0.486 Q 0.5660000000000001 -0.486 0.5660000000000001 -0.47500000000000003 L 0.509 -0.241 Q 0.504 -0.222 0.494 -0.221 Q 0.481 -0.221 0.481 -0.232 Q 0.481 -0.23600000000000002 0.484 -0.243 Q 0.491 -0.273 0.491 -0.292 Q 0.491 -0.319 0.47600000000000003 -0.327 Q 0.457 -0.338 0.406 -0.338 L 0.307 -0.338 L 0.23900000000000002 -0.065 Q 0.234 -0.047 0.234 -0.042 Q 0.234 -0.034 0.243 -0.032 L 0.243 -0.032 L 0.243 -0.032 L 0.247 -0.032 Q 0.253 -0.031 0.269 -0.031 L 0.41500000000000004 -0.031 Q 0.537 -0.031 0.595 -0.08700000000000001 Q 0.633 -0.123 0.678 -0.222 Q 0.682 -0.233 0.6880000000000001 -0.246 Q 0.6920000000000001 -0.258 0.7010000000000001 -0.258 Q 0.713 -0.258 0.713 -0.247 Q 0.713 -0.246 0.708 -0.233 Z"/></g><g transform="translate(12.895894736842104,32.09615789473684) scale(0.7,0.7)"><path fill="rgb(0,0,0)" stroke="none" paint-order="stroke fill markers" d=" M 0.46 -0.32 Q 0.46 -0.17400000000000002 0.423 -0.094 Q 0.364 0.018000000000000002 0.249 0.022 Q 0.158 0.022 0.10300000000000001 -0.05 Q 0.092 -0.063 0.084 -0.079 Q 0.039 -0.162 0.039 -0.32 Q 0.039 -0.467 0.076 -0.547 Q 0.126 -0.659 0.23800000000000002 -0.666 L 0.25 -0.666 Q 0.339 -0.666 0.395 -0.595 L 0.395 -0.594 Q 0.40900000000000003 -0.5760000000000001 0.42 -0.554 Q 0.46 -0.46900000000000003 0.46 -0.32 M 0.249 0 L 0.249 0 Q 0.312 0 0.34600000000000003 -0.061 Q 0.36 -0.088 0.366 -0.125 Q 0.377 -0.189 0.377 -0.332 Q 0.377 -0.47100000000000003 0.367 -0.527 Q 0.34900000000000003 -0.622 0.275 -0.641 Q 0.262 -0.644 0.249 -0.644 Q 0.179 -0.644 0.147 -0.5740000000000001 Q 0.136 -0.55 0.13 -0.516 Q 0.122 -0.462 0.122 -0.332 Q 0.122 -0.181 0.133 -0.121 Q 0.151 -0.025 0.221 -0.004 Q 0.23500000000000001 0 0.249 0 Z"/></g></g></g></g></svg>