<svg version="1.1" xmlns="http://www.w3.org/2000/svg" xmlns:xlink="http://www.w3.org/1999/xlink" width="878" height="490"><defs><clipPath id="AhSeLGTUncdm"><path fill="none" stroke="none" d=" M 0 0 L 878 0 L 878 490 L 0 490 L 0 0 Z"/></clipPath></defs><g transform="scale(1,1)" clip-path="url(#AhSeLGTUncdm)"><g><rect fill="rgb(255,255,255)" stroke="none" x="0" y="0" width="879" height="491" fill-opacity="1"/><path fill="none" stroke="rgb(192,192,192)" paint-order="fill stroke markers" d=" M 8.5 0.5 L 8.5 490.5 M 8.5 0.5 L 8.5 490.5 M 59.5 0.5 L 59.5 490.5 M 110.5 0.5 L 110.5 490.5 M 162.5 0.5 L 162.5 490.5 M 213.5 0.5 L 213.5 490.5 M 264.5 0.5 L 264.5 490.5 M 315.5 0.5 L 315.5 490.5 M 366.5 0.5 L 366.5 490.5 M 469.5 0.5 L 469.5 490.5 M 520.5 0.5 L 520.5 490.5 M 571.5 0.5 L 571.5 490.5 M 622.5 0.5 L 622.5 490.5 M 674.5 0.5 L 674.5 490.5 M 725.5 0.5 L 725.5 490.5 M 776.5 0.5 L 776.5 490.5 M 827.5 0.5 L 827.5 490.5" stroke-opacity="1" stroke-linecap="round" stroke-linejoin="round" stroke-miterlimit="10"/><path fill="none" stroke="rgb(192,192,192)" paint-order="fill stroke markers" d=" M 18.5 0.5 L 18.5 490.5 M 29.5 0.5 L 29.5 490.5 M 39.5 0.5 L 39.5 490.5 M 49.5 0.5 L 49.5 490.5 M 70.5 0.5 L 70.5 490.5 M 80.5 0.5 L 80.5 490.5 M 90.5 0.5 L 90.5 490.5 M 100.5 0.5 L 100.5 490.5 M 121.5 0.5 L 121.5 490.5 M 131.5 0.5 L 131.5 490.5 M 141.5 0.5 L 141.5 490.5 M 151.5 0.5 L 151.5 490.5 M 172.5 0.5 L 172.5 490.5 M 182.5 0.5 L 182.5 490.5 M 192.5 0.5 L 192.5 490.5 M 203.5 0.5 L 203.5 490.5 M 223.5 0.5 L 223.5 490.5 M 233.5 0.5 L 233.5 490.5 M 244.5 0.5 L 244.5 490.5 M 254.5 0.5 L 254.5 490.5 M 274.5 0.5 L 274.5 490.5 M 285.5 0.5 L 285.5 490.5 M 295.5 0.5 L 295.5 490.5 M 305.5 0.5 L 305.5 490.5 M 326.5 0.5 L 326.5 490.5 M 336.5 0.5 L 336.5 490.5 M 346.5 0.5 L 346.5 490.5 M 356.5 0.5 L 356.5 490.5 M 377.5 0.5 L 377.5 490.5 M 387.5 0.5 L 387.5 490.5 M 397.5 0.5 L 397.5 490.5 M 407.5 0.5 L 407.5 490.5 M 428.5 0.5 L 428.5 490.5 M 438.5 0.5 L 438.5 490.5 M 448.5 0.5 L 448.5 490.5 M 459.5 0.5 L 459.5 490.5 M 479.5 0.5 L 479.5 490.5 M 489.5 0.5 L 489.5 490.5 M 500.5 0.5 L 500.5 490.5 M 510.5 0.5 L 510.5 490.5 M 530.5 0.5 L 530.5 490.5 M 541.5 0.5 L 541.5 490.5 M 551.5 0.5 L 551.5 490.5 M 561.5 0.5 L 561.5 490.5 M 581.5 0.5 L 581.5 490.5 M 592.5 0.5 L 592.5 490.5 M 602.5 0.5 L 602.5 490.5 M 612.5 0.5 L 612.5 490.5 M 633.5 0.5 L 633.5 490.5 M 643.5 0.5 L 643.5 490.5 M 653.5 0.5 L 653.5 490.5 M 663.5 0.5 L 663.5 490.5 M 684.5 0.5 L 684.5 490.5 M 694.5 0.5 L 694.5 490.5 M 704.5 0.5 L 704.5 490.5 M 715.5 0.5 L 715.5 490.5 M 735.5 0.5 L 735.5 490.5 M 745.5 0.5 L 745.5 490.5 M 756.5 0.5 L 756.5 490.5 M 766.5 0.5 L 766.5 490.5 M 786.5 0.5 L 786.5 490.5 M 797.5 0.5 L 797.5 490.5 M 807.5 0.5 L 807.5 490.5 M 817.5 0.5 L 817.5 490.5 M 837.5 0.5 L 837.5 490.5 M 848.5 0.5 L 848.5 490.5 M 858.5 0.5 L 858.5 490.5 M 868.5 0.5 L 868.5 490.5" stroke-opacity="0.23529411764705882" stroke-linecap="round" stroke-linejoin="round" stroke-miterlimit="10"/><path fill="none" stroke="rgb(192,192,192)" paint-order="fill stroke markers" d=" M 0.5 41.5 L 878.5 41.5 M 0.5 41.5 L 878.5 41.5 M 0.5 92.5 L 878.5 92.5 M 0.5 143.5 L 878.5 143.5 M 0.5 195.5 L 878.5 195.5 M 0.5 297.5 L 878.5 297.5 M 0.5 348.5 L 878.5 348.5 M 0.5 399.5 L 878.5 399.5 M 0.5 451.5 L 878.5 451.5" stroke-opacity="1" stroke-linecap="round" stroke-linejoin="round" stroke-miterlimit="10"/><path fill="none" stroke="rgb(192,192,192)" paint-order="fill stroke markers" d=" M 0.5 0.5 L 878.5 0.5 M 0.5 10.5 L 878.5 10.5 M 0.5 21.5 L 878.5 21.5 M 0.5 31.5 L 878.5 31.5 M 0.5 51.5 L 878.5 51.5 M 0.5 62.5 L 878.5 62.5 M 0.5 72.5 L 878.5 72.5 M 0.5 82.5 L 878.5 82.5 M 0.5 103.5 L 878.5 103.5 M 0.5 113.5 L 878.5 113.5 M 0.5 123.5 L 878.5 123.5 M 0.5 133.5 L 878.5 133.5 M 0.5 154.5 L 878.5 154.5 M 0.5 164.5 L 878.5 164.5 M 0.5 174.5 L 878.5 174.5 M 0.5 184.5 L 878.5 184.5 M 0.5 205.5 L 878.5 205.5 M 0.5 215.5 L 878.5 215.5 M 0.5 225.5 L 878.5 225.5 M 0.5 236.5 L 878.5 236.5 M 0.5 256.5 L 878.5 256.5 M 0.5 266.5 L 878.5 266.5 M 0.5 277.5 L 878.5 277.5 M 0.5 287.5 L 878.5 287.5 M 0.5 307.5 L 878.5 307.5 M 0.5 318.5 L 878.5 318.5 M 0.5 328.5 L 878.5 328.5 M 0.5 338.5 L 878.5 338.5 M 0.5 358.5 L 878.5 358.5 M 0.5 369.5 L 878.5 369.5 M 0.5 379.5 L 878.5 379.5 M 0.5 389.5 L 878.5 389.5 M 0.5 410.5 L 878.5 410.5 M 0.5 420.5 L 878.5 420.5 M 0.5 430.5 L 878.5 430.5 M 0.5 440.5 L 878.5 440.5 M 0.5 461.5 L 878.5 461.5 M 0.5 471.5 L 878.5 471.5 M 0.5 481.5 L 878.5 481.5" stroke-opacity="0.23529411764705882" stroke-linecap="round" stroke-linejoin="round" stroke-miterlimit="10"/><path fill="none" stroke="rgb(37,37,37)" paint-order="fill stroke markers" d=" M 418.5 2.5 L 418.5 490.5" stroke-opacity="1" stroke-miterlimit="10"/><path fill="none" stroke="rgb(37,37,37)" paint-order="fill stroke markers" d=" M 418.5 1.5 L 414.5 5.5" stroke-opacity="1" stroke-miterlimit="10"/><path fill="none" stroke="rgb(37,37,37)" paint-order="fill stroke markers" d=" M 418.5 1.5 L 422.5 5.5" stroke-opacity="1" stroke-miterlimit="10"/><path fill="none" stroke="rgb(37,37,37)" paint-order="fill stroke markers" d=" M 0.5 246.5 L 876.5 246.5" stroke-opacity="1" stroke-miterlimit="10"/><path fill="none" stroke="rgb(37,37,37)" paint-order="fill stroke markers" d=" M 877.5 246.5 L 873.5 242.5" stroke-opacity="1" stroke-miterlimit="10"/><path fill="none" stroke="rgb(37,37,37)" paint-order="fill stroke markers" d=" M 877.5 246.5 L 873.5 250.5" stroke-opacity="1" stroke-miterlimit="10"/><text fill="rgb(37,37,37)" stroke="none" font-family="geogebra-sans-serif, sans-serif" font-size="12px" font-style="normal" font-weight="normal" text-decoration="normal" x="48" y="262" text-anchor="start" dominant-baseline="alphabetic" fill-opacity="1">–3.5</text><text fill="none" stroke="rgb(255,255,255)" font-family="geogebra-sans-serif, sans-serif" font-size="12px" font-style="normal" font-weight="normal" text-decoration="normal" x="48" y="262" text-anchor="start" dominant-baseline="alphabetic" stroke-opacity="1" stroke-linejoin="bevel" stroke-miterlimit="10" stroke-width="3">–3.5</text><text fill="rgb(37,37,37)" stroke="none" font-family="geogebra-sans-serif, sans-serif" font-size="12px" font-style="normal" font-weight="normal" text-decoration="normal" x="48" y="262" text-anchor="start" dominant-baseline="alphabetic" fill-opacity="1">–3.5</text><text fill="rgb(37,37,37)" stroke="none" font-family="geogebra-sans-serif, sans-serif" font-size="12px" font-style="normal" font-weight="normal" text-decoration="normal" x="105" y="262" text-anchor="start" dominant-baseline="alphabetic" fill-opacity="1">–3</text><text fill="none" stroke="rgb(255,255,255)" font-family="geogebra-sans-serif, sans-serif" font-size="12px" font-style="normal" font-weight="normal" text-decoration="normal" x="105" y="262" text-anchor="start" dominant-baseline="alphabetic" stroke-opacity="1" stroke-linejoin="bevel" stroke-miterlimit="10" stroke-width="3">–3</text><text fill="rgb(37,37,37)" stroke="none" font-family="geogebra-sans-serif, sans-serif" font-size="12px" font-style="normal" font-weight="normal" text-decoration="normal" x="105" y="262" text-anchor="start" dominant-baseline="alphabetic" fill-opacity="1">–3</text><text fill="rgb(37,37,37)" stroke="none" font-family="geogebra-sans-serif, sans-serif" font-size="12px" font-style="normal" font-weight="normal" text-decoration="normal" x="151" y="262" text-anchor="start" dominant-baseline="alphabetic" fill-opacity="1">–2.5</text><text fill="none" stroke="rgb(255,255,255)" font-family="geogebra-sans-serif, sans-serif" font-size="12px" font-style="normal" font-weight="normal" text-decoration="normal" x="151" y="262" text-anchor="start" dominant-baseline="alphabetic" stroke-opacity="1" stroke-linejoin="bevel" stroke-miterlimit="10" stroke-width="3">–2.5</text><text fill="rgb(37,37,37)" stroke="none" font-family="geogebra-sans-serif, sans-serif" font-size="12px" font-style="normal" font-weight="normal" text-decoration="normal" x="151" y="262" text-anchor="start" dominant-baseline="alphabetic" fill-opacity="1">–2.5</text><text fill="rgb(37,37,37)" stroke="none" font-family="geogebra-sans-serif, sans-serif" font-size="12px" font-style="normal" font-weight="normal" text-decoration="normal" x="208" y="262" text-anchor="start" dominant-baseline="alphabetic" fill-opacity="1">–2</text><text fill="none" stroke="rgb(255,255,255)" font-family="geogebra-sans-serif, sans-serif" font-size="12px" font-style="normal" font-weight="normal" text-decoration="normal" x="208" y="262" text-anchor="start" dominant-baseline="alphabetic" stroke-opacity="1" stroke-linejoin="bevel" stroke-miterlimit="10" stroke-width="3">–2</text><text fill="rgb(37,37,37)" stroke="none" font-family="geogebra-sans-serif, sans-serif" font-size="12px" font-style="normal" font-weight="normal" text-decoration="normal" x="208" y="262" text-anchor="start" dominant-baseline="alphabetic" fill-opacity="1">–2</text><text fill="rgb(37,37,37)" stroke="none" font-family="geogebra-sans-serif, sans-serif" font-size="12px" font-style="normal" font-weight="normal" text-decoration="normal" x="253" y="262" text-anchor="start" dominant-baseline="alphabetic" fill-opacity="1">–1.5</text><text fill="none" stroke="rgb(255,255,255)" font-family="geogebra-sans-serif, sans-serif" font-size="12px" font-style="normal" font-weight="normal" text-decoration="normal" x="253" y="262" text-anchor="start" dominant-baseline="alphabetic" stroke-opacity="1" stroke-linejoin="bevel" stroke-miterlimit="10" stroke-width="3">–1.5</text><text fill="rgb(37,37,37)" stroke="none" font-family="geogebra-sans-serif, sans-serif" font-size="12px" font-style="normal" font-weight="normal" text-decoration="normal" x="253" y="262" text-anchor="start" dominant-baseline="alphabetic" fill-opacity="1">–1.5</text><text fill="rgb(37,37,37)" stroke="none" font-family="geogebra-sans-serif, sans-serif" font-size="12px" font-style="normal" font-weight="normal" text-decoration="normal" x="310" y="262" text-anchor="start" dominant-baseline="alphabetic" fill-opacity="1">–1</text><text fill="none" stroke="rgb(255,255,255)" font-family="geogebra-sans-serif, sans-serif" font-size="12px" font-style="normal" font-weight="normal" text-decoration="normal" x="310" y="262" text-anchor="start" dominant-baseline="alphabetic" stroke-opacity="1" stroke-linejoin="bevel" stroke-miterlimit="10" stroke-width="3">–1</text><text fill="rgb(37,37,37)" stroke="none" font-family="geogebra-sans-serif, sans-serif" font-size="12px" font-style="normal" font-weight="normal" text-decoration="normal" x="310" y="262" text-anchor="start" dominant-baseline="alphabetic" fill-opacity="1">–1</text><text fill="rgb(37,37,37)" stroke="none" font-family="geogebra-sans-serif, sans-serif" font-size="12px" font-style="normal" font-weight="normal" text-decoration="normal" x="355" y="262" text-anchor="start" dominant-baseline="alphabetic" fill-opacity="1">–0.5</text><text fill="none" stroke="rgb(255,255,255)" font-family="geogebra-sans-serif, sans-serif" font-size="12px" font-style="normal" font-weight="normal" text-decoration="normal" x="355" y="262" text-anchor="start" dominant-baseline="alphabetic" stroke-opacity="1" stroke-linejoin="bevel" stroke-miterlimit="10" stroke-width="3">–0.5</text><text fill="rgb(37,37,37)" stroke="none" font-family="geogebra-sans-serif, sans-serif" font-size="12px" font-style="normal" font-weight="normal" text-decoration="normal" x="355" y="262" text-anchor="start" dominant-baseline="alphabetic" fill-opacity="1">–0.5</text><text fill="rgb(37,37,37)" stroke="none" font-family="geogebra-sans-serif, sans-serif" font-size="12px" font-style="normal" font-weight="normal" text-decoration="normal" x="461" y="262" text-anchor="start" dominant-baseline="alphabetic" fill-opacity="1">0.5</text><text fill="none" stroke="rgb(255,255,255)" font-family="geogebra-sans-serif, sans-serif" font-size="12px" font-style="normal" font-weight="normal" text-decoration="normal" x="461" y="262" text-anchor="start" dominant-baseline="alphabetic" stroke-opacity="1" stroke-linejoin="bevel" stroke-miterlimit="10" stroke-width="3">0.5</text><text fill="rgb(37,37,37)" stroke="none" font-family="geogebra-sans-serif, sans-serif" font-size="12px" font-style="normal" font-weight="normal" text-decoration="normal" x="461" y="262" text-anchor="start" dominant-baseline="alphabetic" fill-opacity="1">0.5</text><text fill="rgb(37,37,37)" stroke="none" font-family="geogebra-sans-serif, sans-serif" font-size="12px" font-style="normal" font-weight="normal" text-decoration="normal" x="518" y="262" text-anchor="start" dominant-baseline="alphabetic" fill-opacity="1">1</text><text fill="none" stroke="rgb(255,255,255)" font-family="geogebra-sans-serif, sans-serif" font-size="12px" font-style="normal" font-weight="normal" text-decoration="normal" x="518" y="262" text-anchor="start" dominant-baseline="alphabetic" stroke-opacity="1" stroke-linejoin="bevel" stroke-miterlimit="10" stroke-width="3">1</text><text fill="rgb(37,37,37)" stroke="none" font-family="geogebra-sans-serif, sans-serif" font-size="12px" font-style="normal" font-weight="normal" text-decoration="normal" x="518" y="262" text-anchor="start" dominant-baseline="alphabetic" fill-opacity="1">1</text><text fill="rgb(37,37,37)" stroke="none" font-family="geogebra-sans-serif, sans-serif" font-size="12px" font-style="normal" font-weight="normal" text-decoration="normal" x="563" y="262" text-anchor="start" dominant-baseline="alphabetic" fill-opacity="1">1.5</text><text fill="none" stroke="rgb(255,255,255)" font-family="geogebra-sans-serif, sans-serif" font-size="12px" font-style="normal" font-weight="normal" text-decoration="normal" x="563" y="262" text-anchor="start" dominant-baseline="alphabetic" stroke-opacity="1" stroke-linejoin="bevel" stroke-miterlimit="10" stroke-width="3">1.5</text><text fill="rgb(37,37,37)" stroke="none" font-family="geogebra-sans-serif, sans-serif" font-size="12px" font-style="normal" font-weight="normal" text-decoration="normal" x="563" y="262" text-anchor="start" dominant-baseline="alphabetic" fill-opacity="1">1.5</text><text fill="rgb(37,37,37)" stroke="none" font-family="geogebra-sans-serif, sans-serif" font-size="12px" font-style="normal" font-weight="normal" text-decoration="normal" x="620" y="262" text-anchor="start" dominant-baseline="alphabetic" fill-opacity="1">2</text><text fill="none" stroke="rgb(255,255,255)" font-family="geogebra-sans-serif, sans-serif" font-size="12px" font-style="normal" font-weight="normal" text-decoration="normal" x="620" y="262" text-anchor="start" dominant-baseline="alphabetic" stroke-opacity="1" stroke-linejoin="bevel" stroke-miterlimit="10" stroke-width="3">2</text><text fill="rgb(37,37,37)" stroke="none" font-family="geogebra-sans-serif, sans-serif" font-size="12px" font-style="normal" font-weight="normal" text-decoration="normal" x="620" y="262" text-anchor="start" dominant-baseline="alphabetic" fill-opacity="1">2</text><text fill="rgb(37,37,37)" stroke="none" font-family="geogebra-sans-serif, sans-serif" font-size="12px" font-style="normal" font-weight="normal" text-decoration="normal" x="666" y="262" text-anchor="start" dominant-baseline="alphabetic" fill-opacity="1">2.5</text><text fill="none" stroke="rgb(255,255,255)" font-family="geogebra-sans-serif, sans-serif" font-size="12px" font-style="normal" font-weight="normal" text-decoration="normal" x="666" y="262" text-anchor="start" dominant-baseline="alphabetic" stroke-opacity="1" stroke-linejoin="bevel" stroke-miterlimit="10" stroke-width="3">2.5</text><text fill="rgb(37,37,37)" stroke="none" font-family="geogebra-sans-serif, sans-serif" font-size="12px" font-style="normal" font-weight="normal" text-decoration="normal" x="666" y="262" text-anchor="start" dominant-baseline="alphabetic" fill-opacity="1">2.5</text><text fill="rgb(37,37,37)" stroke="none" font-family="geogebra-sans-serif, sans-serif" font-size="12px" font-style="normal" font-weight="normal" text-decoration="normal" x="723" y="262" text-anchor="start" dominant-baseline="alphabetic" fill-opacity="1">3</text><text fill="none" stroke="rgb(255,255,255)" font-family="geogebra-sans-serif, sans-serif" font-size="12px" font-style="normal" font-weight="normal" text-decoration="normal" x="723" y="262" text-anchor="start" dominant-baseline="alphabetic" stroke-opacity="1" stroke-linejoin="bevel" stroke-miterlimit="10" stroke-width="3">3</text><text fill="rgb(37,37,37)" stroke="none" font-family="geogebra-sans-serif, sans-serif" font-size="12px" font-style="normal" font-weight="normal" text-decoration="normal" x="723" y="262" text-anchor="start" dominant-baseline="alphabetic" fill-opacity="1">3</text><text fill="rgb(37,37,37)" stroke="none" font-family="geogebra-sans-serif, sans-serif" font-size="12px" font-style="normal" font-weight="normal" text-decoration="normal" x="768" y="262" text-anchor="start" dominant-baseline="alphabetic" fill-opacity="1">3.5</text><text fill="none" stroke="rgb(255,255,255)" font-family="geogebra-sans-serif, sans-serif" font-size="12px" font-style="normal" font-weight="normal" text-decoration="normal" x="768" y="262" text-anchor="start" dominant-baseline="alphabetic" stroke-opacity="1" stroke-linejoin="bevel" stroke-miterlimit="10" stroke-width="3">3.5</text><text fill="rgb(37,37,37)" stroke="none" font-family="geogebra-sans-serif, sans-serif" font-size="12px" font-style="normal" font-weight="normal" text-decoration="normal" x="768" y="262" text-anchor="start" dominant-baseline="alphabetic" fill-opacity="1">3.5</text><text fill="rgb(37,37,37)" stroke="none" font-family="geogebra-sans-serif, sans-serif" font-size="12px" font-style="normal" font-weight="normal" text-decoration="normal" x="825" y="262" text-anchor="start" dominant-baseline="alphabetic" fill-opacity="1">4</text><text fill="none" stroke="rgb(255,255,255)" font-family="geogebra-sans-serif, sans-serif" font-size="12px" font-style="normal" font-weight="normal" text-decoration="normal" x="825" y="262" text-anchor="start" dominant-baseline="alphabetic" stroke-opacity="1" stroke-linejoin="bevel" stroke-miterlimit="10" stroke-width="3">4</text><text fill="rgb(37,37,37)" stroke="none" font-family="geogebra-sans-serif, sans-serif" font-size="12px" font-style="normal" font-weight="normal" text-decoration="normal" x="825" y="262" text-anchor="start" dominant-baseline="alphabetic" fill-opacity="1">4</text><text fill="rgb(37,37,37)" stroke="none" font-family="geogebra-sans-serif, sans-serif" font-size="12px" font-style="normal" font-weight="normal" text-decoration="normal" x="398" y="456" text-anchor="start" dominant-baseline="alphabetic" fill-opacity="1">–2</text><text fill="none" stroke="rgb(255,255,255)" font-family="geogebra-sans-serif, sans-serif" font-size="12px" font-style="normal" font-weight="normal" text-decoration="normal" x="398" y="456" text-anchor="start" dominant-baseline="alphabetic" stroke-opacity="1" stroke-linejoin="bevel" stroke-miterlimit="10" stroke-width="3">–2</text><text fill="rgb(37,37,37)" stroke="none" font-family="geogebra-sans-serif, sans-serif" font-size="12px" font-style="normal" font-weight="normal" text-decoration="normal" x="398" y="456" text-anchor="start" dominant-baseline="alphabetic" fill-opacity="1">–2</text><text fill="rgb(37,37,37)" stroke="none" font-family="geogebra-sans-serif, sans-serif" font-size="12px" font-style="normal" font-weight="normal" text-decoration="normal" x="388" y="404" text-anchor="start" dominant-baseline="alphabetic" fill-opacity="1">–1.5</text><text fill="none" stroke="rgb(255,255,255)" font-family="geogebra-sans-serif, sans-serif" font-size="12px" font-style="normal" font-weight="normal" text-decoration="normal" x="388" y="404" text-anchor="start" dominant-baseline="alphabetic" stroke-opacity="1" stroke-linejoin="bevel" stroke-miterlimit="10" stroke-width="3">–1.5</text><text fill="rgb(37,37,37)" stroke="none" font-family="geogebra-sans-serif, sans-serif" font-size="12px" font-style="normal" font-weight="normal" text-decoration="normal" x="388" y="404" text-anchor="start" dominant-baseline="alphabetic" fill-opacity="1">–1.5</text><text fill="rgb(37,37,37)" stroke="none" font-family="geogebra-sans-serif, sans-serif" font-size="12px" font-style="normal" font-weight="normal" text-decoration="normal" x="398" y="353" text-anchor="start" dominant-baseline="alphabetic" fill-opacity="1">–1</text><text fill="none" stroke="rgb(255,255,255)" font-family="geogebra-sans-serif, sans-serif" font-size="12px" font-style="normal" font-weight="normal" text-decoration="normal" x="398" y="353" text-anchor="start" dominant-baseline="alphabetic" stroke-opacity="1" stroke-linejoin="bevel" stroke-miterlimit="10" stroke-width="3">–1</text><text fill="rgb(37,37,37)" stroke="none" font-family="geogebra-sans-serif, sans-serif" font-size="12px" font-style="normal" font-weight="normal" text-decoration="normal" x="398" y="353" text-anchor="start" dominant-baseline="alphabetic" fill-opacity="1">–1</text><text fill="rgb(37,37,37)" stroke="none" font-family="geogebra-sans-serif, sans-serif" font-size="12px" font-style="normal" font-weight="normal" text-decoration="normal" x="388" y="302" text-anchor="start" dominant-baseline="alphabetic" fill-opacity="1">–0.5</text><text fill="none" stroke="rgb(255,255,255)" font-family="geogebra-sans-serif, sans-serif" font-size="12px" font-style="normal" font-weight="normal" text-decoration="normal" x="388" y="302" text-anchor="start" dominant-baseline="alphabetic" stroke-opacity="1" stroke-linejoin="bevel" stroke-miterlimit="10" stroke-width="3">–0.5</text><text fill="rgb(37,37,37)" stroke="none" font-family="geogebra-sans-serif, sans-serif" font-size="12px" font-style="normal" font-weight="normal" text-decoration="normal" x="388" y="302" text-anchor="start" dominant-baseline="alphabetic" fill-opacity="1">–0.5</text><text fill="rgb(37,37,37)" stroke="none" font-family="geogebra-sans-serif, sans-serif" font-size="12px" font-style="normal" font-weight="normal" text-decoration="normal" x="394" y="200" text-anchor="start" dominant-baseline="alphabetic" fill-opacity="1">0.5</text><text fill="none" stroke="rgb(255,255,255)" font-family="geogebra-sans-serif, sans-serif" font-size="12px" font-style="normal" font-weight="normal" text-decoration="normal" x="394" y="200" text-anchor="start" dominant-baseline="alphabetic" stroke-opacity="1" stroke-linejoin="bevel" stroke-miterlimit="10" stroke-width="3">0.5</text><text fill="rgb(37,37,37)" stroke="none" font-family="geogebra-sans-serif, sans-serif" font-size="12px" font-style="normal" font-weight="normal" text-decoration="normal" x="394" y="200" text-anchor="start" dominant-baseline="alphabetic" fill-opacity="1">0.5</text><text fill="rgb(37,37,37)" stroke="none" font-family="geogebra-sans-serif, sans-serif" font-size="12px" font-style="normal" font-weight="normal" text-decoration="normal" x="404" y="148" text-anchor="start" dominant-baseline="alphabetic" fill-opacity="1">1</text><text fill="none" stroke="rgb(255,255,255)" font-family="geogebra-sans-serif, sans-serif" font-size="12px" font-style="normal" font-weight="normal" text-decoration="normal" x="404" y="148" text-anchor="start" dominant-baseline="alphabetic" stroke-opacity="1" stroke-linejoin="bevel" stroke-miterlimit="10" stroke-width="3">1</text><text fill="rgb(37,37,37)" stroke="none" font-family="geogebra-sans-serif, sans-serif" font-size="12px" font-style="normal" font-weight="normal" text-decoration="normal" x="404" y="148" text-anchor="start" dominant-baseline="alphabetic" fill-opacity="1">1</text><text fill="rgb(37,37,37)" stroke="none" font-family="geogebra-sans-serif, sans-serif" font-size="12px" font-style="normal" font-weight="normal" text-decoration="normal" x="394" y="97" text-anchor="start" dominant-baseline="alphabetic" fill-opacity="1">1.5</text><text fill="none" stroke="rgb(255,255,255)" font-family="geogebra-sans-serif, sans-serif" font-size="12px" font-style="normal" font-weight="normal" text-decoration="normal" x="394" y="97" text-anchor="start" dominant-baseline="alphabetic" stroke-opacity="1" stroke-linejoin="bevel" stroke-miterlimit="10" stroke-width="3">1.5</text><text fill="rgb(37,37,37)" stroke="none" font-family="geogebra-sans-serif, sans-serif" font-size="12px" font-style="normal" font-weight="normal" text-decoration="normal" x="394" y="97" text-anchor="start" dominant-baseline="alphabetic" fill-opacity="1">1.5</text><text fill="rgb(37,37,37)" stroke="none" font-family="geogebra-sans-serif, sans-serif" font-size="12px" font-style="normal" font-weight="normal" text-decoration="normal" x="404" y="46" text-anchor="start" dominant-baseline="alphabetic" fill-opacity="1">2</text><text fill="none" stroke="rgb(255,255,255)" font-family="geogebra-sans-serif, sans-serif" font-size="12px" font-style="normal" font-weight="normal" text-decoration="normal" x="404" y="46" text-anchor="start" dominant-baseline="alphabetic" stroke-opacity="1" stroke-linejoin="bevel" stroke-miterlimit="10" stroke-width="3">2</text><text fill="rgb(37,37,37)" stroke="none" font-family="geogebra-sans-serif, sans-serif" font-size="12px" font-style="normal" font-weight="normal" text-decoration="normal" x="404" y="46" text-anchor="start" dominant-baseline="alphabetic" fill-opacity="1">2</text><text fill="rgb(37,37,37)" stroke="none" font-family="geogebra-sans-serif, sans-serif" font-size="12px" font-style="normal" font-weight="normal" text-decoration="normal" x="404" y="262" text-anchor="start" dominant-baseline="alphabetic" fill-opacity="1">0</text><text fill="none" stroke="rgb(255,255,255)" font-family="geogebra-sans-serif, sans-serif" font-size="12px" font-style="normal" font-weight="normal" text-decoration="normal" x="404" y="262" text-anchor="start" dominant-baseline="alphabetic" stroke-opacity="1" stroke-linejoin="bevel" stroke-miterlimit="10" stroke-width="3">0</text><text fill="rgb(37,37,37)" stroke="none" font-family="geogebra-sans-serif, sans-serif" font-size="12px" font-style="normal" font-weight="normal" text-decoration="normal" x="404" y="262" text-anchor="start" dominant-baseline="alphabetic" fill-opacity="1">0</text><path fill="none" stroke="rgb(0,0,0)" paint-order="fill stroke markers" d=" M 0 246.36776846019697 L 3.4296875 246.36776652294319 L 6.859375 246.36776405869583 L 10.2890625 246.36776097038282 L 13.71875 246.3677571607849 L 17.1484375 246.3677525419554 L 20.578125000000057 246.36774704950776 L 24.0078125 246.3677406633314 L 27.437500000000057 246.36773343661537 L 30.8671875 246.3677255353908 L 34.296875 246.36771729113315 L 37.7265625 246.36770926925743 L 41.15625 246.367702356564 L 44.58593750000006 246.36769787078782 L 48.015625 246.36769769531182 L 51.4453125 246.36770444173402 L 54.875 246.36772164223623 L 58.30468750000006 246.36775397246367 L 61.734375 246.36780750376263 L 65.1640625 246.3678899809881 L 68.59375000000006 246.3680111185304 L 72.0234375 246.36818290256622 L 75.45312500000006 246.36841988167325 L 78.8828125 246.36873942073797 L 82.3125 246.3691618844632 L 85.7421875 246.369710706737 L 89.17187500000006 246.370412290741 L 92.6015625 246.37129567216388 L 96.03125 246.37239186459777 L 99.46093750000006 246.37373279268138 L 102.890625 246.37534970556877 L 106.32031250000006 246.37727095185048 L 109.75 246.37951898840294 L 113.1796875 246.38210649132654 L 116.609375 246.38503143896338 L 120.03906250000006 246.3882710470036 L 123.46875000000006 246.39177445613828 L 126.8984375 246.3954541059403 L 130.328125 246.39917577700788 L 133.7578125 246.40274734908877 L 137.18750000000006 246.40590640778925 L 140.6171875 246.40830693788612 L 144.046875 246.40950546772842 L 147.4765625 246.40894717618883 L 150.90625 246.40595263921054 L 154.33593750000006 246.39970607364467 L 157.765625 246.38924612636237 L 161.1953125 246.37346044900121 L 164.62500000000003 246.35108548338118 L 168.05468750000006 246.32071304751372 L 171.48437500000003 246.2808054429524 L 174.9140625 246.22972088476686 L 178.34375000000003 246.1657510679293 L 181.7734375 246.0871726097768 L 185.20312500000003 245.9923139288252 L 188.63281250000003 245.87963881798737 L 192.0625 245.74784752991567 L 195.49218750000003 245.59599560222375 L 198.92187500000006 245.4236299044856 L 202.35156250000003 245.23094048778677 L 205.78125 245.01892577022497 L 209.21093750000003 244.78956741695578 L 212.640625 244.54601000089104 L 216.07031250000003 244.29273920138058 L 219.50000000000003 244.03575096638804 L 222.9296875 243.78270279346822 L 226.35937500000003 243.54303715114546 L 229.7890625 243.32806614815158 L 233.21875000000003 243.1510059517864 L 236.6484375 243.02694924833438 L 240.07812500000003 242.9727643149103 L 243.50781250000003 243.0069101119625 L 246.93750000000003 243.14915827358786 L 250.36718750000003 243.4202150135029 L 253.796875 243.8412387968062 L 257.2265625 244.43325313908034 L 260.65625 245.21645803649332 L 264.0859375 246.20944821561605 L 267.515625 247.42835149084473 L 270.9453125 248.88590586095168 L 274.375 250.59049935646044 L 277.8046875 252.54520182509964 L 281.234375 254.7468225467606 L 284.6640625 257.18503151989745 L 288.09375 259.84158517275677 L 291.5234375 262.6896988509283 L 294.95312500000006 265.69360846984466 L 298.3828125 268.80836199218896 L 301.8125 271.97987774950457 L 305.2421875 275.14530100172857 L 308.671875 278.23368253076404 L 312.1015625 281.1669936025103 L 315.53125 283.8614805143411 L 318.9609375 286.2293494811311 L 322.390625 288.1807592079858 L 325.82031250000006 289.62608464300445 L 329.25 290.47840165963873 L 330.96484375 290.65640496188684 L 332.6796875 290.6561293950551 L 336.109375 290.0857553007381 L 337.82421875 289.49993522339327 L 339.5390625 288.70455827034374 L 342.96875 286.46323808553944 L 346.3984375 283.32835538121157 L 349.82812500000006 279.28448579376885 L 353.2578125 274.3359952077351 L 356.68750000000006 268.50835019083274 L 360.1171875 261.8488887704463 L 363.546875 254.42699143881615 L 366.9765625 246.33361028365857 L 370.40625 237.68013485543466 L 373.83593750000006 228.59659607738388 L 377.265625 219.22923332631552 L 380.69531250000006 209.73747381362253 L 384.125 200.29039657678783 L 387.5546875 191.06277474426 L 390.984375 182.23080829431365 L 394.4140625 173.96767441335163 L 397.84375000000006 166.4390330268899 L 401.2734375 159.79863055676853 L 404.70312500000006 154.1841450865923 L 408.1328125 149.71341075861903 L 411.5625 146.4811484846185 L 413.27734375 145.35205786651198 L 414.9921875 144.55631427676406 L 416.70703125000006 144.09819251190987 L 417.56445312500006 143.99658103199704 L 418.42187500000006 143.98015626716222 L 420.13671875000006 144.2028406300979 L 420.99414062500006 144.44165011594148 L 421.85156250000006 144.76504756584535 L 423.56640625 145.66375443316116 L 425.28125 146.8941354571077 L 428.7109375 150.32181913039577 L 432.14062500000006 154.97503933936187 L 435.57031250000006 160.75533525932912 L 439 167.54159751565248 L 442.4296875 175.19342294426812 L 445.859375 183.55495704770766 L 449.28906250000006 192.45909507516834 L 452.71875 201.73190272480218 L 456.1484375 211.19711294984617 L 459.578125 220.68055631560318 L 463.00781250000006 230.01438862997887 L 466.43750000000006 239.04099075850152 L 469.8671875 247.61643103609396 L 473.296875 255.61339973481242 L 476.7265625 262.92354674468527 L 480.15625000000006 269.45917699752886 L 483.5859375 275.1542822017238 L 487.015625 279.9649111643599 L 490.4453125 283.8689034204318 L 493.87500000000006 286.86503123120974 L 497.30468750000006 288.9716125529981 L 499.01953125000006 289.7019474268842 L 500.734375 290.22467176919406 L 504.1640625 290.67573545344453 L 505.87890625 290.6202547381089 L 507.59375 290.3893570018605 L 511.02343750000006 289.44046662878077 L 514.453125 287.91164212273736 L 517.8828125 285.8903912160043 L 521.3125 283.4665288666869 L 524.7421875 280.7297227174963 L 528.171875 277.76726807611493 L 531.6015625 274.6621405873271 L 535.03125 271.49136096757053 L 538.4609375 268.3246923519091 L 541.890625 265.22367751311094 L 545.3203125 262.2410109314413 L 548.75 259.42022981310674 L 552.1796875 256.79569896897567 L 555.609375 254.39285716599372 L 559.0390625 252.2286872445249 L 562.46875 250.3123689546502 L 565.8984375 248.64607201822056 L 569.328125 247.2258472149843 L 572.7578125 246.04257510793275 L 576.1875 245.08293511237707 L 579.6171875 244.33036169819763 L 583.046875 243.76595930939843 L 586.4765625 243.36935280889764 L 589.90625 243.11945564596869 L 593.3359375 242.99514326243056 L 596.765625 242.97582429926305 L 600.1953125 243.04190677430802 L 603.625 243.17516045162668 L 607.0546875 243.35898003236483 L 610.484375 243.5785565229876 L 613.9140625 243.82096617214034 L 617.34375 244.07518773535267 L 620.7734375 244.33205957547867 L 624.203125 244.58418830334597 L 627.6328125 244.82582038784918 L 631.0625 245.05268750536158 L 634.4921875 245.26183544481282 L 637.921875 245.45144522487826 L 641.3515625 245.6206537954231 L 644.78125 245.76938036006493 L 648.2109375 245.8981630334211 L 651.640625 246.0080092867329 L 655.0703125 246.1002624786824 L 658.5 246.17648574234676 L 661.9296875 246.2383636216042 L 665.359375 246.28762112855043 L 668.7890625 246.32595932706283 L 672.21875 246.35500612939637 L 675.6484375 246.37628071040862 L 679.078125 246.39116978197922 L 682.5078125 246.40091391059318 L 685.9375 246.4066020852135 L 689.3671875 246.4091728319496 L 692.796875 246.409420309096 L 696.2265625 246.4080039849205 L 699.65625 246.4054606871671 L 703.0859375 246.40221800587415 L 706.515625 246.39860822035132 L 709.9453125 246.39488209979856 L 713.375 246.3912220899603 L 716.8046875 246.3877545421197 L 720.234375 246.3845607639761 L 723.6640625 246.38168677415192 L 727.09375 246.37915172390868 L 730.5234375 246.3769550125413 L 733.953125 246.3750821687977 L 737.3828125 246.37350960178043 L 740.8125 246.37220834347892 L 744.2421875 246.371146913703 L 747.671875 246.3702934389441 L 751.1015625 246.3696171516011 L 754.53125 246.3690893868307 L 757.9609375 246.3686841825207 L 761.390625 246.36837857475908 L 764.8203125 246.36815266764864 L 768.25 246.3679895431181 L 771.6796875 246.36787506402257 L 775.109375 246.36779761263787 L 778.5390625 246.3677477968249 L 781.96875 246.36771814773482 L 785.3984375 246.36770282593162 L 788.828125 246.3676973471355 L 792.2578125 246.367698334325 L 795.6875 246.3677032995247 L 799.1171875 246.3677104560985 L 802.546875 246.36771856061193 L 805.9765625 246.36772678217287 L 809.40625 246.3677345964818 L 812.8359375 246.3677417015022 L 816.265625 246.36774795160102 L 819.6953125 246.36775330713044 L 823.125 246.3677577966586 L 826.5546875 246.36776148935766 L 829.984375 246.3677644753896 L 833.4140625000001 246.36776685246022 L 836.84375 246.36776871702804 L 840.2734375 246.36777015894168 L 843.703125 246.3677712585322 L 847.1328125 246.36777208540462 L 850.5625 246.36777269835432 L 853.9921875 246.3677731459823 L 857.421875 246.36777346770288 L 860.8515625 246.36777369492887 L 864.2812500000001 246.36777385229215 L 867.7109375 246.36777395880827 L 871.140625 246.36777402893435 L 874.5703125 246.36777407349442 L 878 246.36777410046588" stroke-opacity="0.6980392156862745" stroke-linecap="round" stroke-linejoin="round" stroke-miterlimit="10" stroke-width="2.5"/><text fill="rgb(0,0,0)" stroke="none" font-family="geogebra-sans-serif, sans-serif" font-size="16px" font-style="normal" font-weight="normal" text-decoration="normal" x="8" y="246" text-anchor="start" dominant-baseline="alphabetic" fill-opacity="1">eq1</text><text fill="none" stroke="rgb(255,255,255)" font-family="geogebra-sans-serif, sans-serif" font-size="16px" font-style="normal" font-weight="normal" text-decoration="normal" x="8" y="246" text-anchor="start" dominant-baseline="alphabetic" stroke-opacity="1" stroke-linejoin="bevel" stroke-miterlimit="10" stroke-width="3">eq1</text><text fill="rgb(0,0,0)" stroke="none" font-family="geogebra-sans-serif, sans-serif" font-size="16px" font-style="normal" font-weight="normal" text-decoration="normal" x="8" y="246" text-anchor="start" dominant-baseline="alphabetic" fill-opacity="1">eq1</text></g></g></svg>